PathFileType	4	(X/Y/Z)	/Users/niels/Desktop/University/Third Semester/Perception and Action/Exam/Gymnastics Motion Tracking/Code for Gym Tracking/Analyzed Data/Webcam_Backflip/id5_1_trajectory_Sports2D/id5_1_trajectory_Sports2D_px_person00.trc
DataRate	CameraRate	NumFrames	NumMarkers	Units	OrigDataRate	OrigDataStartFrame	OrigNumFrames
29.76190476190476	29.76190476190476	10	22	m	29.76190476190476	47	126
Frame#	Time	Hip			RHip			RKnee			RAnkle			RBigToe			RSmallToe			RHeel			LHip			LKnee			LAnkle			LBigToe			LSmallToe			LHeel			Neck			Head			Nose			RShoulder			RElbow			RWrist			LShoulder			LElbow			LWrist		
		X1	Y1	Z1	X2	Y2	Z2	X3	Y3	Z3	X4	Y4	Z4	X5	Y5	Z5	X6	Y6	Z6	X7	Y7	Z7	X8	Y8	Z8	X9	Y9	Z9	X10	Y10	Z10	X11	Y11	Z11	X12	Y12	Z12	X13	Y13	Z13	X14	Y14	Z14	X15	Y15	Z15	X16	Y16	Z16	X17	Y17	Z17	X18	Y18	Z18	X19	Y19	Z19	X20	Y20	Z20	X21	Y21	Z21	X22	Y22	Z22
47	1.5792000000000002	0.8344016687389585	-0.6145333647512856	0.0	0.7979713103062613	-0.6113078635040619	0.0	0.7749340045683256	-0.7220906166588925	0.0	0.7787155832154682	-0.8800483022101792	0.0	0.7573986479823543	-0.9083680181676084	0.0	0.7432581115222652	-0.9059495716792707	0.0	0.7872782980329444	-0.9049638272164491	0.0	0.8707961536040012	-0.6210848442185714	0.0	0.8762993501445002	-0.75951881575076	0.0	0.8751813237365041	-0.8921277605378239	0.0	0.8637247540793933	-0.919843330665227	0.0	0.8878264969375596	-0.9177574934159611	0.0	0.8732146909469805	-0.9061169996148599	0.0	0.8475277396929229	-0.3913534604126933	0.0	0.8453889755343689	-0.29428550955531924	0.0	0.841105113055631	-0.34974816990137075	0.0	0.7825171309470653	-0.42836860752237926	0.0	0.7602102776758788	-0.5218946125428124	0.0	0.7275880042518099	-0.6139308529449281	0.0	0.91547041745829	-0.43412154507229445	0.0	0.9386632526309107	-0.5314613971624856	0.0	0.9543242221292262	-0.6199969172862176	0.0
48	1.6128000000000002	0.8326761875467174	-0.6143142393221985	0.0	0.7959081281038071	-0.6121397860089366	0.0	0.7764124497792129	-0.7302462368974616	0.0	0.777999958857379	-0.8887411116462401	0.0	0.7580260085287511	-0.9169953545767637	0.0	0.7430952937686167	-0.9147871885423815	0.0	0.7853496283595268	-0.9141015395456362	0.0	0.8691243143881136	-0.6205464490013823	0.0	0.8757715172047553	-0.759869504075912	0.0	0.8756159848910994	-0.8922159459060569	0.0	0.8645037105190464	-0.9226455992735059	0.0	0.8889997305028122	-0.9195218645921496	0.0	0.8735651827295926	-0.9068055518768191	0.0	0.8422668158054464	-0.3879397457782166	0.0	0.8379844606937651	-0.29017849627006687	0.0	0.8349071562755442	-0.34533237488104884	0.0	0.7774714641816062	-0.42786509011371204	0.0	0.7565651330127233	-0.5230107439346003	0.0	0.7243205224796169	-0.6164279276795679	0.0	0.9121001136361019	-0.42988947498451463	0.0	0.9386346374000406	-0.5273465203562339	0.0	0.954947456495744	-0.6141928851807923	0.0
49	1.6464000000000003	0.8306850924911784	-0.614047449475835	0.0	0.7935656749804613	-0.6129355041705342	0.0	0.7774522776589682	-0.7381753941611813	0.0	0.7779325206985086	-0.8963807424953276	0.0	0.7599476201440093	-0.9257136086817636	0.0	0.7440737579939807	-0.923227127987853	0.0	0.7841439986120691	-0.9211609775856882	0.0	0.8671711094942155	-0.6199739232171314	0.0	0.8754969573385717	-0.7606928507986455	0.0	0.8760812703842238	-0.891436111412218	0.0	0.8651294373121275	-0.9250123867583574	0.0	0.8900651368568834	-0.9205732667768228	0.0	0.874284848906086	-0.9062987308669784	0.0	0.836065835671671	-0.38470352984944584	0.0	0.8296045847478034	-0.28622621397647124	0.0	0.8279119034027622	-0.3411271642291949	0.0	0.7716985644445253	-0.42769228428232486	0.0	0.7524226615768488	-0.5247772744860586	0.0	0.7209361762537632	-0.6196965523508944	0.0	0.9077555148335642	-0.4255908130660733	0.0	0.9377690616670363	-0.5231905451794561	0.0	0.9548053104683357	-0.6087545334432238	0.0
50	1.6800000000000002	0.8284669204389888	-0.6135573462721655	0.0	0.790983731381544	-0.6133795476630485	0.0	0.777784097342079	-0.7447917151976094	0.0	0.778133706826828	-0.9027058678531559	0.0	0.7619574773851173	-0.9335163864535116	0.0	0.7452996208771027	-0.9303445460972699	0.0	0.7835651264788152	-0.9263230227972383	0.0	0.8651996277248383	-0.6191477472650266	0.0	0.875688671800242	-0.761578067712859	0.0	0.8765804287969524	-0.8894259169059994	0.0	0.865311933254674	-0.9261369026873653	0.0	0.8908165111402891	-0.9201911997939335	0.0	0.8753155087387412	-0.904057055579919	0.0	0.8291832341278442	-0.3814277505713304	0.0	0.8204133677697107	-0.28207170997410086	0.0	0.8203248909469669	-0.33713034148812937	0.0	0.7654019083341971	-0.42735846707213526	0.0	0.7480032939317666	-0.5265371656925245	0.0	0.7176159771231779	-0.6232202613397072	0.0	0.9025816956023395	-0.4209462313729595	0.0	0.9359221008901032	-0.5188330220284343	0.0	0.9539305649924753	-0.603999043813424	0.0
51	1.7136000000000002	0.8261396722222966	-0.6126892973074057	0.0	0.7882753990328226	-0.6132724380613785	0.0	0.7773252894536836	-0.7497102351534629	0.0	0.7782803044749432	-0.9076079950121817	0.0	0.7632770651322517	-0.9397147553969486	0.0	0.7461848159997667	-0.9355823290987373	0.0	0.7833774133765049	-0.9298986680031566	0.0	0.8634585404666568	-0.6178547191177335	0.0	0.8764621618678327	-0.7622231086608511	0.0	0.8770311751042695	-0.885667803224613	0.0	0.8650652730303868	-0.9253411178219594	0.0	0.8912657951632915	-0.9177279559669456	0.0	0.876458571791803	-0.8994909731935159	0.0	0.8219581569694834	-0.3778342554828715	0.0	0.8106851098182823	-0.27733740019065134	0.0	0.8124920995043612	-0.3331971858541758	0.0	0.7588121689609723	-0.42633164713162824	0.0	0.7434649699358671	-0.5275977618753995	0.0	0.7144515631339042	-0.6263735088676582	0.0	0.8968143695045427	-0.41564866360473596	0.0	0.9330706368891288	-0.5140651408265846	0.0	0.9524704556685749	-0.6000943598129811	0.0
52	1.7472000000000003	0.8238907700365037	-0.6112157917986782	0.0	0.785610924413145	-0.6124423592005604	0.0	0.7762263829482244	-0.7529999170806184	0.0	0.7782545428449885	-0.9111345418607696	0.0	0.7637530292808594	-0.9439947463038961	0.0	0.74660303690046	-0.9387832618591153	0.0	0.7833865324957331	-0.932232446692321	0.0	0.8621088648128192	-0.615818804977879	0.0	0.8778483651291592	-0.7625128740224802	0.0	0.8773371414271095	-0.8794374602016846	0.0	0.8649364176572154	-0.9222399426915951	0.0	0.8917835634712518	-0.9127634587876379	0.0	0.8774375538643271	-0.8918534245368415	0.0	0.8147200426658847	-0.37360402864942405	0.0	0.8007991320671018	-0.27168846486518833	0.0	0.8047994513958011	-0.32899232039836035	0.0	0.7521274430486199	-0.42416174309441995	0.0	0.7388475494244915	-0.5273741277022665	0.0	0.7114522381512658	-0.6284294014591554	0.0	0.8907308331240009	-0.40945279307458393	0.0	0.9293517872449508	-0.5087170766642104	0.0	0.9506042575625913	-0.596875590458646	0.0
53	1.7808000000000002	0.8219116685579511	-0.6089252336461571	0.0	0.7831866114753044	-0.6107778705253323	0.0	0.7747951811805104	-0.7548948839360063	0.0	0.7781142593669211	-0.9133777296846404	0.0	0.7636544171286019	-0.9463363330851758	0.0	0.7467681870662601	-0.9400753694333066	0.0	0.7835470175743564	-0.9335954403504928	0.0	0.8611750929409824	-0.6127900438537539	0.0	0.8798294863008405	-0.7624068226200629	0.0	0.8773991727338084	-0.8701776343076009	0.0	0.8657149171622	-0.9167983837355258	0.0	0.8928280896701438	-0.9052771174027421	0.0	0.87795397540499	-0.8805630730378207	0.0	0.8077631338819534	-0.36841845419183067	0.0	0.7912004261799084	-0.26488097719593895	0.0	0.797584552320746	-0.3240544281927868	0.0	0.745517142744849	-0.4205776676844135	0.0	0.7340809083275626	-0.5254991215565417	0.0	0.7086065151672304	-0.6286739867530869	0.0	0.8846656472071927	-0.4022907101440216	0.0	0.9250591249059239	-0.5027306104142021	0.0	0.9484737066800264	-0.5938743722761697	0.0
54	1.8144000000000002	0.820307860295981	-0.6057252811448164	0.0	0.7811543067004678	-0.6082632102920785	0.0	0.7733729269452457	-0.7556212727111661	0.0	0.7779494432543284	-0.9143903995595447	0.0	0.7634424845580453	-0.9469763614140863	0.0	0.7470186281558405	-0.9398130802319576	0.0	0.7838556721863704	-0.9340999063620011	0.0	0.8605740953358249	-0.6086999100889683	0.0	0.8823688547565369	-0.761690879207289	0.0	0.8770836499964534	-0.8582589706437412	0.0	0.867744110882978	-0.909455716316419	0.0	0.894476909501494	-0.8958803945457436	0.0	0.8777171621501743	-0.86604194553191	0.0	0.8013749751012279	-0.36207934101292927	0.0	0.7823689089870418	-0.25685499433427106	0.0	0.7911400975493303	-0.317987642278699	0.0	0.7391886156535298	-0.4155435928333598	0.0	0.7290799295218048	-0.5218913448016302	0.0	0.7059138966748334	-0.6266074412925354	0.0	0.8790144398760971	-0.39433238021337885	0.0	0.920575963649624	-0.4961901274455606	0.0	0.9462106154135025	-0.5905683295470308	0.0
55	1.8480000000000003	0.8190620642916381	-0.6016582841589855	0.0	0.7795552472301664	-0.6049854422281212	0.0	0.7722443459844777	-0.7553605254716824	0.0	0.7778178114174882	-0.9142033408992755	0.0	0.763605532785911	-0.9463686525955627	0.0	0.7476194034479513	-0.9385532093376541	0.0	0.7842365457361229	-0.9337062961338644	0.0	0.8602085395391115	-0.6037159961616314	0.0	0.8854414581064689	-0.759762900327479	0.0	0.8763310490476574	-0.8454819998028301	0.0	0.8707236985507356	-0.9013810463189068	0.0	0.8964116517338876	-0.8860789939714926	0.0	0.8765421807599891	-0.8504856451020177	0.0	0.7958283594064349	-0.35464394594252296	0.0	0.7748190568298569	-0.24778878641370738	0.0	0.7857637416802846	-0.3106388604239027	0.0	0.7334148296341182	-0.40925779648948396	0.0	0.7238437809150231	-0.5167542514918034	0.0	0.7033549101758209	-0.6221146645217809	0.0	0.874170940394371	-0.38594279149655225	0.0	0.9162858862528609	-0.4893451230914337	0.0	0.9439538979587613	-0.5866350615025938	0.0
56	1.8816000000000002	0.8181114169161123	-0.5968937776016401	0.0	0.7783511245962709	-0.6011553058534953	0.0	0.7715768662761416	-0.7542916427641986	0.0	0.7777838472911012	-0.9129212757650514	0.0	0.764436562770326	-0.9450859142656828	0.0	0.7486365125637889	-0.9369551654167725	0.0	0.7845695123395191	-0.9323777621312999	0.0	0.8600120209590201	-0.5981707033661121	0.0	0.8890032866324421	-0.755795509268241	0.0	0.8753407355685322	-0.8346461689949185	0.0	0.874223725030364	-0.8944919252981899	0.0	0.8984203410421837	-0.8781872086090456	0.0	0.8745554961957022	-0.8375958380794969	0.0	0.7913349257444542	-0.34643156069776426	0.0	0.7690434204961107	-0.2380260704589827	0.0	0.7817267586935538	-0.30215365882724243	0.0	0.7284462848651064	-0.4020902181233273	0.0	0.7184810447423353	-0.5105190262558571	0.0	0.7008480317316429	-0.6155445815567849	0.0	0.8704292108246793	-0.37757791606503466	0.0	0.9124615499951148	-0.4825681215276177	0.0	0.9418032894025691	-0.5820699971966714	0.0
